<svg xmlns="http://www.w3.org/2000/svg" version="1.1" xmlns:xlink="http://www.w3.org/1999/xlink" xmlns:svgjs="http://svgjs.dev/svgjs" width="2000" height="1500" viewBox="0 0 2000 1500"><rect width="2000" height="1500" fill="#ffffff"></rect><g transform="matrix(0.75,0,0,0.75,249.090909090909,617.6696848381987)"><svg viewBox="0 0 396 69" data-background-color="#ffffff" preserveAspectRatio="xMidYMid meet" height="348" width="2000" xmlns="http://www.w3.org/2000/svg" xmlns:xlink="http://www.w3.org/1999/xlink"><g id="tight-bounds" transform="matrix(1,0,0,1,0.2400000000000091,0.4838764220853875)"><svg viewBox="0 0 395.52 68.03224715582924" height="68.03224715582924" width="395.52"><g><svg viewBox="0 0 395.52 68.03224715582924" height="68.03224715582924" width="395.52"><g><svg viewBox="0 0 395.52 68.03224715582924" height="68.03224715582924" width="395.52"><g id="textblocktransform"><svg viewBox="0 0 395.52 68.03224715582924" height="68.03224715582924" width="395.52" id="textblock"><g><svg viewBox="0 0 395.52 68.03224715582924" height="68.03224715582924" width="395.52"><g transform="matrix(1,0,0,1,0,0)"><svg width="395.52" viewBox="2.54 -39.79 233.9 40.23" height="68.03224715582924" data-palette-color="#8bc53f"><path d="M51.25-16.6L51.25-16.6 51.25-7.06 54.64-7.06 54.64 0 39.55 0 39.55-16.65Q39.55-17.7 38.87-18.51 38.18-19.31 37.23-19.31L37.23-19.31Q35.45-19.31 34.99-17.53L34.99-17.53Q34.5-15.7 34.5-12.4L34.5-12.4 34.5 0 22.78 0 22.78-16.65Q22.78-17.7 22.11-18.51 21.44-19.31 20.48-19.31L20.48-19.31Q18.7-19.31 18.24-17.53L18.24-17.53Q17.75-15.7 17.75-12.4L17.75-12.4 17.75-7.06 17.8-7.06 17.8 0 2.54 0 2.54-7.06 6.08-7.06 6.08-18.6 2.54-18.6 2.54-25.2 17.75-26.66 17.75-23Q19.43-25 21.58-25.83 23.73-26.66 26.44-26.66L26.44-26.66Q31.98-26.66 33.69-21.95L33.69-21.95Q35.5-24.51 37.84-25.59 40.19-26.66 43.19-26.66L43.19-26.66Q51.25-26.66 51.25-16.6ZM66.35-28.71L66.35-28.71Q63.3-28.71 61.33-30.15 59.35-31.59 59.35-34.3L59.35-34.3Q59.35-37.01 61.33-38.4 63.3-39.79 66.4-39.79L66.4-39.79Q69.5-39.79 71.45-38.43 73.39-37.06 73.39-34.3L73.39-34.3Q73.39-31.59 71.4-30.15 69.41-28.71 66.35-28.71ZM72.19-7.35L75.34-7.35 75.34 0 57.35 0 57.35-7.35 60.5-7.35 60.5-18.6 57.35-18.6 57.35-24.61 72.19-26.15 72.19-7.35ZM111.42-16.6L111.42-16.6 111.42-7.06 114.81-7.06 114.81 0 99.7 0 99.7-16.65Q99.7-17.7 99.03-18.51 98.36-19.31 97.41-19.31L97.41-19.31Q95.62-19.31 95.16-17.53L95.16-17.53Q94.67-15.7 94.67-12.4L94.67-12.4 94.67-7.06 94.72-7.06 94.72 0 79.46 0 79.46-7.06 83-7.06 83-18.6 79.46-18.6 79.46-25.2 94.67-26.66 94.67-23Q96.36-25 98.51-25.83 100.65-26.66 103.36-26.66L103.36-26.66Q111.42-26.66 111.42-16.6ZM128.56 0.44L128.56 0.44Q125.02 0.44 122.43-1.44L122.43-1.44Q119.87-3.32 118.53-6.48 117.2-9.64 117.2-13.45L117.2-13.45Q117.2-16.89 118.57-19.97L118.57-19.97Q119.94-23 122.44-24.83 124.94-26.66 128.36-26.66L128.36-26.66Q130.85-26.66 132.63-25.85 134.42-25.05 135.95-23.46L135.95-23.46 135.95-29.86 132.05-29.86 132.05-36.5 147.7-38.11 147.7-7.35 150.8-7.35 150.8 0 135.76 0 135.76-3.15Q134.56-1.54 132.71-0.57 130.85 0.39 128.56 0.44ZM132.46-6.69L132.46-6.69Q133.61-6.69 134.54-7.24 135.47-7.79 135.95-8.54L135.95-8.54 135.95-17.8Q135.39-18.46 134.45-18.98 133.51-19.51 132.46-19.51L132.46-19.51Q130.56-19.51 129.36-17.96 128.17-16.41 128.17-13.45L128.17-13.45Q128.17-10.45 129.26-8.57 130.36-6.69 132.46-6.69ZM174.67-7.35L174.67 0 154.38 0 154.38-7.35 158.29-7.35 158.29-18.99 154.38-18.99 154.38-26.15 158.29-26.15 158.29-28.49Q158.29-38.35 166.98-38.35L166.98-38.35Q168.89-38.35 171.08-38 173.28-37.65 174.67-37.21L174.67-37.21 174.67-30Q172.84-30.3 172.13-30.3L172.13-30.3Q169.99-30.3 169.99-27.05L169.99-27.05 169.99-26.15 174.67-26.15 174.67-18.99 169.99-18.99 169.99-7.35 174.67-7.35ZM189.44 0.44L189.44 0.44Q181.58 0.44 181.58-9.4L181.58-9.4 181.58-18.6 178.43-18.6 178.43-25.2 193.27-26.66 193.27-9.4Q193.27-8.45 193.98-7.65 194.69-6.86 195.64-6.86L195.64-6.86Q196.74-6.86 197.36-7.6 197.99-8.35 197.99-9.45L197.99-9.45 197.99-18.6 195.64-18.6 195.64-25.2 209.68-26.66 209.68-7.35 212.83-7.35 212.83 0 197.99 0 197.99-3.81Q196.69-1.81 194.53-0.68 192.37 0.44 189.44 0.44ZM232.68-7.35L236.44-7.35 236.44 0 216.68 0 216.68-7.35 220.98-7.35 220.98-29.86 216.68-29.86 216.68-36.5 232.68-38.11 232.68-7.35Z" opacity="1" transform="matrix(1,0,0,1,0,0)" fill="#8bc53f" class="wordmark-text-0" data-fill-palette-color="primary" id="text-0"></path></svg></g></svg></g></svg></g></svg></g></svg></g><defs></defs></svg><rect width="395.52" height="68.03224715582924" fill="none" stroke="none" visibility="hidden"></rect></g></svg></g></svg>